<svg xmlns="http://www.w3.org/2000/svg" width="20.834" height="25.001" viewBox="0 0 20.834 25.001"><defs><style>.a{fill:#fff;}</style></defs><g transform="translate(-2845.666 -19.076)"><path class="a" d="M2865.853,36.694a6.977,6.977,0,0,1-2.478-5.339v-2.9a7.3,7.3,0,0,0-6.25-7.208V20.117a1.042,1.042,0,0,0-2.084,0v1.126a7.3,7.3,0,0,0-6.25,7.208v2.9A6.982,6.982,0,0,1,2846.3,36.7a1.823,1.823,0,0,0,1.186,3.208h17.188a1.823,1.823,0,0,0,1.176-3.216Z"/><path class="a" d="M2856.083,44.077a3.912,3.912,0,0,0,3.827-3.125h-7.654A3.912,3.912,0,0,0,2856.083,44.077Z"/></g></svg>