<svg xmlns="http://www.w3.org/2000/svg" width="17.78" height="23.706" viewBox="0 0 17.78 23.706"><defs><style>.a{fill:#333;}</style></defs><path class="a" d="M2258.239,519.371h-1.482v-4.445a5.927,5.927,0,0,0-11.853,0v4.445h-1.481a1.483,1.483,0,0,0-1.482,1.482v10.371a1.482,1.482,0,0,0,1.482,1.482h14.816a1.482,1.482,0,0,0,1.482-1.482V520.853A1.483,1.483,0,0,0,2258.239,519.371Zm-6.667,7.2v1.687a.741.741,0,1,1-1.482,0v-1.687a1.482,1.482,0,1,1,1.482,0Zm-3.7-7.2v-4.445a2.963,2.963,0,1,1,5.926,0v4.445Z" transform="translate(-2241.941 -509)"/></svg>