<svg xmlns="http://www.w3.org/2000/svg" width="126.232" height="126.232" viewBox="0 0 126.232 126.232"><defs><style>.a{fill:#21c7aa;}</style></defs><g transform="translate(-2299.644 -305)"><path class="a" d="M2362.76,305a63.116,63.116,0,1,0,63.116,63.116A63.188,63.188,0,0,0,2362.76,305Zm0,120.743a57.628,57.628,0,1,1,57.628-57.627A57.69,57.69,0,0,1,2362.76,425.743Z"/><path class="a" d="M2362.76,365.372a35.715,35.715,0,0,0-35.674,35.674,2.744,2.744,0,1,0,5.488,0,30.186,30.186,0,0,1,60.372,0,2.745,2.745,0,0,0,5.489,0A35.716,35.716,0,0,0,2362.76,365.372Z"/><path class="a" d="M2362.76,321.465a19.21,19.21,0,1,0,19.21,19.209A19.231,19.231,0,0,0,2362.76,321.465Zm0,32.93a13.72,13.72,0,1,1,13.721-13.721A13.74,13.74,0,0,1,2362.76,354.395Z"/></g></svg>